<svg width="22" height="22" fill="none" xmlns="http://www.w3.org/2000/svg"><path d="m5.934 13.52-.437-.46c-.097.1-.16.23-.179.372l.616.089Zm2.11 2.277.09.64a.612.612 0 0 0 .356-.19l-.447-.45Zm-2.463.38-.614-.088a.673.673 0 0 0 .178.547.596.596 0 0 0 .527.18l-.09-.64Zm14.495-2.3-.54.316c.045.085.109.158.186.214a.605.605 0 0 0 .533.089.615.615 0 0 0 .24-.143l-.419-.476Zm-1.745 4.536a.654.654 0 0 0 .162-.466.669.669 0 0 0-.202-.449.616.616 0 0 0-.446-.168.599.599 0 0 0-.43.21l.916.873Zm1.434-6.436a.64.64 0 0 0-.373-.306.596.596 0 0 0-.471.059.628.628 0 0 0-.294.39.674.674 0 0 0 .057.491l1.081-.634Zm2.048 1.118a.664.664 0 0 0 .025-.9.604.604 0 0 0-.86-.056l.835.956Zm-15.444.885 6.536-6.743-.87-.922-6.538 6.745.872.92Zm7.656-5.59-6.428 6.958.893.898 6.428-6.96-.893-.896Zm-6.072 6.768-2.462.378.18 1.281 2.463-.38-.181-1.28v.001Zm-1.758 1.107.352-2.656-1.229-.177-.35 2.656 1.227.177Zm7.777-9.067a.848.848 0 0 1 .053 1.192l.893.897c.808-.874.744-2.277-.136-3.069l-.81.98Zm-1.067.039a.767.767 0 0 1 1.067-.039l.81-.98a1.975 1.975 0 0 0-1.392-.511c-.51.018-.993.235-1.356.608l.872.922Zm-2.363 13.469c-2.467 0-4.833-1.023-6.577-2.843C2.22 16.043 1.24 13.574 1.24 11H0c0 2.917 1.11 5.715 3.088 7.778C5.065 20.841 7.746 22 10.542 22v-1.294ZM1.24 11c0-2.574.98-5.043 2.725-6.863 1.744-1.82 4.11-2.843 6.577-2.843V0C7.746 0 5.065 1.159 3.088 3.222 1.11 5.285 0 8.082 0 11h1.24Zm9.302-9.706c2.467 0 4.834 1.023 6.578 2.843 1.744 1.82 2.724 4.289 2.724 6.863h1.24c0-2.917-1.11-5.715-3.087-7.778C16.02 1.159 13.338 0 10.542 0v1.294ZM19.845 11c0 .937-.127 1.841-.364 2.697l1.19.358c.27-.97.414-1.996.414-3.055h-1.24Zm-2.43 6.54a9.3 9.3 0 0 1-3.116 2.341 8.949 8.949 0 0 1-3.757.825V22a10.147 10.147 0 0 0 4.258-.934 10.545 10.545 0 0 0 3.531-2.653l-.916-.872Zm3.202-3.981-.852-1.582-1.081.634.853 1.582 1.08-.634Zm-.121.794 1.317-1.258-.836-.955-1.319 1.258.838.955Z" fill="#3392C7"/></svg>
